:SAMPLES-PER-SECOND 30
:FULLY-SPECIFIED
:DEGREES
352
root  10.1491 40.1612 -63.0323 -178.246 5.21901 -179.754
RightUpLeg  0.288706 0.460531 3.3113
RightLeg  0.344621 -1.74053 1.66869
RightFoot  -2.0579 0.0883249 -0.949539
RightToes  -5.82073e-011 -3.18055e-015 -2.98177e-016
Spine  0.506942 1.54828 -1.4387
Spine1  6.40431 0.676101 4.63087
HEad  -18.0906 0.694175 6.63135
LeftShoulder1  -3.88251e-019 9.70628e-020 -3.87848e-018
LeftArm  -26.4849 61.2686 -71.0172
LeftForeArm  2.20527 -8.39002 -3.75387
LeftHand  -0.607013 -1.96703 10.3107
RightShoulder  7.65279 10.6193 35.9613
RightArm  14.5634 -38.5315 17.4595
RightForeArm  5.68982 19.5107 -9.44268
RightHand  -1.0323 3.20004 -13.7948
LeftUpLeg  -2.05487 -2.76229 -3.18903
LeftLeg  4.05656 22.1028 3.74508
LeftFoot  -1.55332 0.0643017 -0.691133
LeftToes  -3.44176e-011 4.05998e-011 -5.21293e-012
353
root  10.0809 40.1698 -63.0076 -178.163 5.19409 -179.728
RightUpLeg  0.205868 0.462411 3.2322
RightLeg  0.232978 -1.75111 1.71173
RightFoot  -1.96694 0.080431 -0.868573
RightToes  -5.82073e-011 -3.18055e-015 -2.98177e-016
Spine  -0.113157 1.93586 -1.24339
Spine1  7.11508 1.13476 4.26789
HEad  -16.6646 -0.194754 7.30007
LeftShoulder1  -3.88251e-019 9.70628e-020 -3.87848e-018
LeftArm  -25.6485 62.4886 -70.4949
LeftForeArm  2.97517 -9.61275 -3.90531
LeftHand  -0.649478 -2.33162 10.4696
RightShoulder  7.54628 10.5681 35.5403
RightArm  13.1899 -38.9269 17.6875
RightForeArm  6.62411 18.8147 -8.71196
RightHand  -1.07456 3.31426 -14.171
LeftUpLeg  -2.01424 -2.75121 -3.24339
LeftLeg  3.71764 22.0924 3.49642
LeftFoot  -1.55201 0.0604083 -0.656864
LeftToes  -3.44176e-011 4.05998e-011 -5.21293e-012
354
root  10.0112 40.1683 -62.9828 -178.2 4.77171 -179.707
RightUpLeg  0.198917 0.357655 3.12022
RightLeg  0.31876 -2.0221 1.73329
RightFoot  -2.00137 0.0673988 -0.734916
RightToes  -5.82073e-011 -3.18055e-015 -2.98177e-016
Spine  -0.155243 2.1305 -1.26117
Spine1  6.96778 1.40286 4.01478
HEad  -14.8502 -0.801869 8.24776
LeftShoulder1  -3.88251e-019 9.70628e-020 -3.87848e-018
LeftArm  -25.3593 63.373 -70.0642
LeftForeArm  3.88093 -9.97505 -3.88496
LeftHand  -0.591134 -2.16982 9.74819
RightShoulder  7.53924 10.5636 35.5145
RightArm  11.8158 -39.309 17.3851
RightForeArm  8.36352 17.8795 -7.77365
RightHand  -1.12867 3.73886 -14.2088
LeftUpLeg  -2.08007 -2.86075 -3.35505
LeftLeg  3.73228 21.7893 3.55773
LeftFoot  -1.64069 0.0584551 -0.641712
LeftToes  -3.44176e-011 4.05998e-011 -5.21293e-012
355
root  9.93998 40.1619 -62.9545 -178.322 4.08798 -179.722
RightUpLeg  0.2464 0.18867 2.9737
RightLeg  0.528739 -2.5208 1.70871
RightFoot  -2.09301 0.0538862 -0.596348
RightToes  -5.82073e-011 -3.18055e-015 -2.98177e-016
Spine  -0.404314 2.20277 -1.52967
Spine1  7.24144 1.48954 4.01176
HEad  -13.4435 -1.32576 9.51275
LeftShoulder1  -3.88251e-019 9.70628e-020 -3.87848e-018
LeftArm  -25.7988 63.4 -70.013
LeftForeArm  4.77327 -9.4211 -3.72607
LeftHand  -0.516105 -1.92314 8.83
RightShoulder  7.64175 10.61 35.9267
RightArm  10.2268 -39.2329 16.9576
RightForeArm  10.6002 16.8365 -6.90871
RightHand  -1.12179 3.9167 -13.8597
LeftUpLeg  -2.17247 -3.04911 -3.51881
LeftLeg  3.8907 21.2916 3.72955
LeftFoot  -1.73199 0.049876 -0.554653
LeftToes  -3.44176e-011 4.05998e-011 -5.21293e-012
356
root  9.86487 40.1589 -62.9166 -178.469 3.4621 -179.743
RightUpLeg  0.321751 0.0426496 2.82336
RightLeg  0.682676 -2.99503 1.67621
RightFoot  -2.13014 0.0414952 -0.469293
RightToes  -5.82073e-011 -3.18055e-015 -2.98177e-016
Spine  -0.689796 2.30836 -1.59814
Spine1  7.653 1.66597 3.7446
HEad  -12.489 -1.81819 10.8465
LeftShoulder1  -3.88251e-019 9.70628e-020 -3.87848e-018
LeftArm  -26.6746 62.8015 -70.222
LeftForeArm  5.28886 -8.32417 -3.44953
LeftHand  -0.469168 -1.81588 8.16247
RightShoulder  7.77599 10.6762 36.4499
RightArm  8.7673 -39.1346 16.5805
RightForeArm  12.522 15.8268 -6.25282
RightHand  -1.05432 3.63379 -13.4335
LeftUpLeg  -2.20406 -3.18275 -3.66686
LeftLeg  3.97187 20.8057 3.7928
LeftFoot  -1.78229 0.0367481 -0.416917
LeftToes  -3.44176e-011 4.05998e-011 -5.21293e-012
357
root  9.78304 40.159 -62.873 -178.626 3.00052 -179.73
RightUpLeg  0.410995 -0.0323018 2.70965
RightLeg  0.762397 -3.3461 1.63247
RightFoot  -2.10288 0.0305537 -0.35711
RightToes  -5.82073e-011 -3.18055e-015 -2.98177e-016
Spine  -0.74431 2.43306 -1.39558
Spine1  7.7553 1.92412 3.18793
HEad  -11.9565 -1.85634 12.2745
LeftShoulder1  -3.88251e-019 9.70628e-020 -3.87848e-018
LeftArm  -27.6077 62.1014 -70.5737
LeftForeArm  4.96683 -7.4441 -3.1809
LeftHand  -0.449523 -1.70647 7.94854
RightShoulder  7.8575 10.7201 36.7566
RightArm  7.85766 -39.3811 16.3048
RightForeArm  13.572 15.0285 -5.78711
RightHand  -1.003 3.30864 -13.2492
LeftUpLeg  -2.18379 -3.21261 -3.75837
LeftLeg  4.01705 20.3963 3.76679
LeftFoot  -1.84363 0.025951 -0.303471
LeftToes  -3.44176e-011 4.05998e-011 -5.21293e-012
358
root  9.69442 40.1571 -62.838 -178.791 2.61159 -179.718
RightUpLeg  0.46555 -0.0638954 2.61314
RightLeg  0.924678 -3.67461 1.50607
RightFoot  -2.09958 0.023019 -0.279861
RightToes  -5.82073e-011 -3.18055e-015 -2.98177e-016
Spine  -0.741467 2.47428 -1.33948
Spine1  7.72438 2.03972 2.87557
HEad  -10.6609 -2.43914 12.6849
LeftShoulder1  -3.88251e-019 9.70628e-020 -3.87848e-018
LeftArm  -28.3346 61.5643 -71.1036
LeftForeArm  3.87474 -7.32801 -3.06772
LeftHand  -0.452272 -1.53599 8.19382
RightShoulder  7.8803 10.7373 36.8307
RightArm  7.34801 -39.8062 16.1693
RightForeArm  14.1557 14.4846 -5.49295
RightHand  -1.00857 3.33182 -13.2869
LeftUpLeg  -2.13099 -3.2103 -3.84799
LeftLeg  4.07544 20.0388 3.71605
LeftFoot  -1.93441 0.0144624 -0.182759
LeftToes  -3.44176e-011 4.05998e-011 -5.21293e-012
